<?xml version="1.0" encoding="UTF-8"?>
<!DOCTYPE svg PUBLIC "-//W3C//DTD SVG 1.1//EN" "http://www.w3.org/Graphics/SVG/1.1/DTD/svg11.dtd">
<!-- Creator: CorelDRAW X7 -->
<svg xmlns="http://www.w3.org/2000/svg" xml:space="preserve" width="3000px" height="3000px" version="1.1" style="shape-rendering:geometricPrecision; text-rendering:geometricPrecision; image-rendering:optimizeQuality; fill-rule:evenodd; clip-rule:evenodd"
viewBox="0 0 3000 3000"
 xmlns:xlink="http://www.w3.org/1999/xlink">
 <defs>
  <style type="text/css">
   <![CDATA[
    .fil1 {fill:none}
    .fil0 {fill:#EE4E2C;fill-rule:nonzero}
   ]]>
  </style>
 </defs>
 <g id="Layer_x0020_1">
  <metadata id="CorelCorpID_0Corel-Layer"/>
  <g id="_1380804017136">
   <path class="fil0" d="M850 1286l-188 0c-21,-188 -111,-250 -183,-247 -80,4 -162,90 -165,247l-188 0c-14,0 -26,12 -26,26l35 529c0,14 39,81 100,80l509 0c89,-13 100,-88 100,-103l32 -506c0,-14 -12,-26 -26,-26zm-368 -203l0 0c52,-2 118,49 136,203l-260 0c3,-128 65,-200 124,-203zm53 727l0 0c-61,11 -139,-9 -182,-55 -19,-20 12,-51 31,-31 29,31 80,46 121,45 53,-2 100,-50 70,-104 -41,-74 -144,-53 -197,-112 -42,-47 -22,-121 28,-154 52,-35 142,-33 185,16 19,21 -12,52 -31,31 -34,-40 -116,-35 -148,6 -44,59 22,90 69,104 64,20 135,55 147,129 9,59 -37,114 -93,125z"/>
   <path class="fil0" d="M2131 1546c-41,0 -78,17 -103,45l0 -32c0,-29 -46,-29 -46,0l0 380c0,29 46,29 46,0l0 -169c25,27 62,45 103,45 77,0 139,-61 139,-135 0,-74 -62,-134 -139,-134zm0 220l0 0c-48,0 -88,-38 -88,-86 0,-42 32,-78 74,-85 0,0 1,0 1,0 4,0 9,-1 13,-1 36,0 68,21 81,52 0,0 0,0 0,0 5,11 8,22 8,34 0,48 -40,86 -89,86zm-343 49c-76,0 -138,-61 -138,-135 0,-74 62,-134 138,-134 76,0 138,60 138,134 0,74 -62,135 -138,135zm0 -221l0 0c-49,0 -88,39 -88,86 0,48 39,86 88,86 49,0 88,-38 88,-86 0,-47 -39,-86 -88,-86zm1112 84c-1,-62 -34,-118 -101,-131 -58,-10 -126,20 -151,72 -26,55 -15,131 36,169 55,42 140,29 197,-2 26,-14 2,-53 -24,-39 -36,20 -82,29 -122,16 -30,-10 -47,-35 -52,-63l194 0c12,0 23,-10 23,-22zm-215 -23l0 0c0,-2 1,-3 1,-5 11,-37 49,-58 88,-59 44,-1 69,28 77,64l-166 0zm-95 23c-1,-62 -34,-118 -101,-130 -58,-11 -126,19 -151,72 -26,55 -15,130 36,169 55,41 140,28 197,-2 26,-15 2,-54 -24,-40 -36,20 -82,29 -122,16 -30,-9 -47,-34 -52,-62l194 0c12,0 23,-11 23,-23zm-215 -23l0 0c0,-1 1,-3 1,-5 11,-36 49,-58 88,-59 44,-1 69,29 77,64l-166 0zm-780 -21l0 158c0,29 -47,29 -47,0l0 -155c-1,-30 -27,-44 -28,-44 -33,-15 -93,-8 -129,37l0 162c0,29 -47,29 -47,0l0 -404c0,-30 47,-30 47,0l0 181c57,-38 130,-34 164,-10 0,0 41,22 40,75zm-327 -228c-46,-50 -141,-51 -197,-16 -53,33 -75,110 -29,158 56,60 165,39 209,115 32,55 -18,104 -74,106 -45,0 -99,-14 -129,-46 -21,-21 -53,11 -33,32 45,47 128,67 193,55 60,-11 108,-67 98,-128 -12,-75 -87,-111 -155,-131 -50,-14 -121,-46 -73,-106 33,-42 120,-48 157,-7 20,22 53,-10 33,-32z"/>
  </g>
  <polygon class="fil1" points="0,0 3000,0 3000,3000 0,3000 "/>
 </g>
</svg>
